<svg version="1.1" id="Layer_1" xmlns="http://www.w3.org/2000/svg" xmlns:xlink="http://www.w3.org/1999/xlink" x="0px" y="0px"
	 width="100%" viewBox="0 0 1024 480" enable-background="new 0 0 1024 480" xml:space="preserve">
<path fill="#000000" opacity="1.000000" stroke="none" 
	d="
M324.205627,209.884979 
	C323.144928,212.384781 323.548950,214.425034 324.046387,216.604248 
	C326.691925,228.193756 331.653809,238.963989 335.632080,250.082611 
	C337.592224,255.561020 339.427917,261.104218 340.924011,266.723511 
	C343.019958,274.595764 340.736145,279.086761 333.085297,282.125305 
	C329.554749,283.527435 325.785797,284.442535 322.045868,285.174377 
	C317.722931,286.020325 316.236694,288.227112 318.016357,292.244202 
	C319.693939,296.030884 319.140167,299.084656 315.538910,301.273041 
	C313.519379,302.500244 312.973816,304.276886 313.244080,306.383514 
	C313.739929,310.248871 312.540527,313.453094 310.267212,316.595947 
	C306.765289,321.437469 307.102722,327.022186 308.516937,332.426178 
	C312.818939,348.864807 301.518402,362.036072 283.705292,362.254852 
	C274.357697,362.369690 265.109955,361.031097 255.986694,359.085266 
	C252.061508,358.248077 250.046692,359.289886 249.188690,363.304962 
	C245.400894,381.029938 241.050537,398.646790 237.756577,416.460480 
	C235.909454,426.449524 236.733871,436.705841 238.786804,446.746796 
	C239.119583,448.374481 239.457016,450.002838 239.723648,451.642090 
	C240.666031,457.435516 238.479218,460.140442 232.578537,460.294006 
	C214.150528,460.773560 198.082367,454.000732 183.159485,443.932190 
	C169.216370,434.524719 156.245102,423.740051 141.854614,414.949493 
	C124.990471,404.647827 106.898010,397.950775 87.277802,395.364807 
	C79.251221,394.306854 77.728683,390.986511 82.285217,384.377502 
	C86.538666,378.208160 91.010033,372.184387 95.516525,366.195099 
	C105.177917,353.354828 110.515572,338.862732 112.388184,322.988037 
	C112.679375,320.519531 112.292061,318.365387 110.524529,316.544983 
	C103.565804,309.378113 96.610764,302.207672 89.653488,295.039398 
	C82.407974,287.574097 81.314308,280.953400 85.706711,271.397491 
	C86.316833,270.070160 87.349327,268.862671 87.121941,267.198273 
	C85.857323,265.683167 84.400726,266.542328 83.026230,266.913361 
	C75.353523,268.984711 67.847794,268.273865 60.502316,265.492340 
	C45.055244,259.643036 40.812759,244.684998 50.987347,231.667633 
	C53.956184,227.869293 57.089752,224.138931 60.555965,220.801315 
	C71.689659,210.080597 75.989708,196.703125 76.694046,181.684814 
	C77.693298,160.378143 83.605423,140.715546 97.193733,123.879486 
	C99.735634,120.730057 99.767723,118.539078 96.573090,115.995819 
	C92.522537,112.771141 89.043877,108.942726 85.873840,104.836937 
	C83.681679,101.997673 80.757576,100.136597 77.492020,98.715904 
	C67.436859,94.341377 59.072128,88.039650 54.090599,77.938133 
	C52.445148,74.601501 49.489521,72.804230 46.313126,71.202667 
	C36.769306,66.390587 29.562637,59.266872 25.028336,49.514507 
	C23.885460,47.056416 22.931276,44.568039 23.541040,41.821541 
	C24.286554,38.463589 26.235529,36.376408 29.909372,37.008644 
	C67.424133,43.464615 105.291161,41.211517 143.049484,41.663910 
	C148.862976,41.733562 154.645584,41.605927 160.474091,42.535370 
	C172.873657,44.512669 182.652267,49.624542 186.857498,62.295738 
	C187.939651,65.556435 190.282944,65.454445 192.877899,65.033958 
	C204.295425,63.183872 215.798004,62.884274 227.225525,64.337456 
	C250.826309,67.338654 271.475220,77.253899 289.822266,92.195000 
	C292.922180,94.719429 296.052368,97.216507 299.023010,99.888123 
	C311.524628,111.131393 326.026764,117.303452 342.944580,117.640320 
	C349.788849,117.776619 355.953552,120.380089 361.771088,123.710800 
	C367.273651,126.861168 369.348267,131.781479 368.465698,138.078064 
	C367.418243,145.550964 363.846741,151.684158 358.190491,156.397888 
	C349.842529,163.354813 340.871277,169.343964 330.273804,172.559052 
	C322.906921,174.794037 322.538300,175.764420 324.746857,183.369507 
	C327.289886,192.126343 326.618958,200.817032 324.205627,209.884979 
M233.357529,341.078857 
	C248.723495,346.989532 264.908386,349.277557 281.066406,351.394104 
	C293.551605,353.029541 300.982819,342.815948 296.231506,331.116760 
	C292.722778,322.477112 291.971039,317.332733 300.468536,312.225403 
	C302.136993,311.222565 303.068176,309.582458 302.051544,307.519226 
	C301.074860,305.537109 299.381805,305.258759 297.394531,305.603271 
	C294.444366,306.114716 291.495483,306.716278 288.519562,306.974854 
	C285.132080,307.269257 281.248596,307.443054 280.942902,302.760895 
	C280.662750,298.469757 284.245941,298.075317 287.510651,297.637939 
	C291.793610,297.064087 296.059204,296.354797 300.324707,295.657532 
	C305.192169,294.861877 305.851044,290.900238 306.544952,287.099518 
	C307.288422,283.027588 303.734131,283.274078 301.456024,282.384766 
	C297.566193,280.866364 295.198975,278.027344 294.143829,274.107819 
	C293.263977,270.839233 296.222168,264.473053 299.023682,264.038391 
	C303.430817,263.354675 304.211182,266.479797 304.481934,269.944153 
	C304.673920,272.400818 306.484863,272.627808 308.465912,272.668915 
	C313.282288,272.768829 318.083130,272.525787 322.902130,273.440277 
	C328.742767,274.548615 330.467560,272.275055 328.765808,266.420105 
	C324.536957,251.870575 320.156067,237.371170 314.753265,223.201080 
	C313.079956,218.812531 311.665161,214.296494 312.678680,209.555603 
	C316.196533,193.099930 312.895111,177.514648 306.966583,162.212311 
	C305.825134,159.265976 304.756042,156.267670 303.980469,153.210403 
	C303.240814,150.294632 304.382721,147.840149 307.155243,146.604141 
	C309.983795,145.343185 311.324219,147.678818 312.830688,149.444229 
	C314.390747,151.272537 314.488739,154.264236 317.315857,155.167114 
	C320.179688,153.916367 321.271667,151.214050 322.734558,148.834763 
	C323.829254,147.054276 323.538147,145.344086 322.460297,143.676880 
	C321.271545,141.838150 319.592560,141.649689 317.638062,142.157883 
	C313.935303,143.120636 310.251709,144.208221 306.497681,144.909668 
	C301.840485,145.779861 300.108643,148.278015 300.569611,152.995010 
	C301.375671,161.243164 297.481049,167.544083 290.060120,171.107040 
	C284.098541,173.969376 278.129333,173.486343 272.052460,171.650650 
	C269.622833,170.916718 267.144104,170.288101 265.599792,173.324356 
	C260.271179,183.800781 251.195343,188.598251 239.980515,190.025818 
	C236.509659,190.467636 234.231552,192.084900 232.860687,195.393616 
	C230.877213,200.180862 227.091782,203.569626 222.087646,204.174789 
	C216.024353,204.908020 215.007034,208.497879 214.160172,213.515945 
	C212.477188,223.488281 206.432770,229.867340 196.496826,232.300247 
	C185.600861,234.968216 176.050873,232.805435 168.239182,224.367096 
	C163.898117,219.677826 158.558289,217.947662 152.366608,219.735321 
	C146.018539,221.568130 142.003082,225.760422 141.222580,232.433350 
	C139.064590,250.882950 147.147690,265.084778 160.639709,276.505127 
	C167.989349,282.726257 169.881897,282.113190 176.551544,274.964966 
	C176.778717,274.721527 176.995529,274.466400 177.239624,274.241028 
	C178.255020,273.303528 179.369904,272.573273 180.829315,273.045288 
	C182.439606,273.566071 183.157623,274.758148 183.317429,276.419464 
	C183.821198,281.656982 182.174271,286.010101 177.818558,289.037323 
	C171.143753,293.676331 164.375519,292.895599 157.593964,289.100952 
	C156.094391,288.261871 155.032272,286.306183 152.632034,287.015930 
	C151.621399,290.083099 150.685028,293.265076 149.530792,296.365936 
	C145.621796,306.867340 139.465668,315.084351 127.793259,317.787018 
	C124.109596,318.639923 122.435455,321.185120 122.189842,325.052551 
	C120.958344,344.444275 113.994080,361.597717 101.700363,376.621948 
	C100.543373,378.035919 99.495651,379.553680 98.526695,381.104187 
	C96.527573,384.303192 97.044769,386.340485 101.157303,386.959839 
	C107.602646,387.930511 113.796288,389.935638 119.937813,392.043915 
	C140.214798,399.004608 157.713791,410.879639 174.891037,423.301239 
	C187.448715,432.382141 199.791290,441.844971 215.107498,446.022491 
	C218.714569,447.006348 222.282608,448.418732 226.181473,447.980072 
	C227.110947,445.102509 226.479858,442.498199 226.254135,439.865509 
	C225.499908,431.068512 224.418961,422.126648 226.845764,413.536804 
	C231.558243,396.856750 234.135406,379.735138 238.044968,362.896423 
	C239.506454,356.601715 238.710129,354.953339 232.464188,352.925598 
	C221.792587,349.460968 211.612839,344.989624 202.224564,338.811798 
	C194.767624,333.904877 188.070145,328.222321 184.015274,320.029907 
	C182.662430,317.296600 182.235626,314.509674 185.366013,312.570557 
	C188.330399,310.734283 190.919022,311.752289 192.837479,314.239929 
	C203.125290,327.580048 217.539337,334.686981 233.357529,341.078857 
M245.630096,131.967041 
	C263.821259,126.480980 282.403198,122.435562 301.848297,117.629509 
	C295.214752,112.927612 289.796509,108.842796 284.658936,104.355736 
	C271.239136,92.635231 256.508636,83.076950 239.219879,77.919228 
	C225.634979,73.866486 211.873886,72.151337 197.800537,74.535797 
	C195.167511,74.981911 191.715408,74.962791 191.388077,78.849823 
	C190.373230,90.901237 194.109283,109.547371 207.905579,117.183693 
	C210.373962,118.549957 212.599243,120.328362 211.208450,123.513893 
	C209.722870,126.916573 206.882797,128.575562 203.112991,127.814308 
	C200.810196,127.349297 198.830322,126.051254 196.984161,124.565338 
	C190.542786,119.380859 186.557175,112.552834 183.703186,104.946617 
	C180.199768,95.609619 179.879791,85.743134 178.872925,75.991440 
	C177.433319,62.048923 168.885529,53.721611 154.937683,53.387943 
	C119.299118,52.535381 83.655518,51.889904 48.012722,51.226418 
	C46.122677,51.191238 44.051266,50.568657 41.828541,52.238842 
	C44.536716,56.998352 48.552883,59.842106 53.592068,61.505009 
	C64.952080,65.253746 76.747902,66.224075 88.564758,66.568672 
	C100.720947,66.923180 112.894890,66.644119 125.060730,66.707458 
	C128.429413,66.724998 131.057281,68.076424 131.197128,71.832512 
	C131.340973,75.696518 128.575455,77.306419 125.329514,77.163933 
	C108.362190,76.419044 91.425293,79.965141 74.444519,77.448433 
	C72.633728,77.180061 70.486099,76.498024 68.667633,78.370201 
	C69.048409,79.107849 69.319290,79.899925 69.802864,80.528328 
	C75.049706,87.346619 82.685501,88.440018 90.434441,88.607666 
	C104.094940,88.903214 117.764412,88.764000 131.429459,88.883453 
	C134.585892,88.911049 137.748749,89.156509 140.891739,89.470932 
	C143.516922,89.733574 145.203033,91.127930 145.283508,93.978134 
	C145.360931,96.720566 143.920563,98.506493 141.408310,99.084541 
	C138.668976,99.714828 135.835358,100.050331 133.024521,100.234200 
	C122.717880,100.908417 112.407333,101.569298 102.065361,101.148170 
	C100.756683,101.094887 99.189568,100.919632 98.585716,102.447716 
	C97.934418,104.095871 99.001961,105.361717 100.172188,106.335114 
	C102.757553,108.485619 105.631294,110.029976 108.981667,110.810593 
	C114.430222,112.080101 119.926445,111.570259 125.411682,111.657936 
	C135.058807,111.812134 144.751678,110.931534 154.323181,112.822021 
	C157.058990,113.362366 159.699951,114.457230 159.890778,117.666405 
	C160.089111,121.001755 157.255768,122.004547 154.729507,122.910133 
	C153.663544,123.292252 152.441101,123.256310 151.285553,123.365707 
	C149.517471,123.533104 147.269211,122.777870 146.289246,124.749954 
	C145.177979,126.986214 146.734161,128.945312 148.023697,130.633835 
	C151.861603,135.659164 157.454834,136.540543 163.243393,136.598587 
	C167.272919,136.638992 171.228287,136.681259 174.903519,138.686249 
	C176.952896,139.804276 178.488541,141.154037 178.210449,143.720322 
	C177.928497,146.322144 176.009384,147.625504 173.826538,147.860123 
	C158.283875,149.530716 140.660645,148.557083 133.794479,128.411774 
	C132.919495,125.844627 131.408371,124.079330 128.688812,123.470787 
	C118.799950,121.257988 109.805000,125.370438 104.030899,133.662964 
	C94.616707,147.183258 90.008255,162.221069 88.410782,178.395355 
	C87.648598,186.112289 86.817924,193.822449 85.845970,203.197693 
	C136.609467,172.078232 189.275085,148.813828 245.630096,131.967041 
M142.887070,202.475861 
	C128.519165,209.475128 114.139542,216.444550 100.088905,224.079865 
	C85.340576,232.094330 85.114021,232.422729 89.390488,248.554977 
	C89.475700,248.876404 89.539619,249.205505 89.651009,249.517654 
	C91.388329,254.386261 93.995216,258.585510 99.032082,260.587372 
	C102.176537,261.837097 104.854439,263.460693 104.916016,267.181458 
	C104.974983,270.745422 101.841835,271.488251 99.349823,272.786102 
	C94.031303,275.556030 92.946419,280.332916 96.406258,285.276520 
	C99.781837,290.099731 108.445564,292.534760 114.009285,290.224091 
	C118.604691,288.315491 120.575859,283.527008 119.367928,276.549377 
	C118.915443,273.935577 118.358643,271.386475 121.443352,270.213470 
	C124.735733,268.961517 126.260513,271.379974 127.666664,273.755249 
	C133.637589,283.841492 129.262039,295.485413 117.531372,300.784637 
	C115.926262,301.509674 113.860764,301.512177 112.996902,303.486237 
	C116.557350,307.706543 120.757561,308.760406 126.316765,306.850037 
	C139.584488,302.290619 147.324707,280.937012 139.819931,269.065216 
	C132.204926,257.019043 129.090729,244.200989 131.579071,230.009750 
	C133.305222,220.165344 139.068466,213.822113 147.983932,210.292786 
	C156.525513,206.911469 164.638641,207.920593 171.731079,214.225494 
	C176.420288,218.394028 181.636703,221.325165 188.024368,222.227829 
	C194.385147,223.126724 199.765106,221.265137 202.335175,216.611694 
	C205.594513,210.710312 204.820633,204.511032 200.195038,199.606018 
	C199.053696,198.395721 197.795807,197.287460 196.727905,196.017563 
	C195.038513,194.008652 194.668381,191.833176 196.526428,189.703903 
	C198.478104,187.467377 200.538101,187.918839 202.690994,189.513031 
	C205.098083,191.295456 207.474258,193.166840 210.068329,194.639328 
	C214.784332,197.316254 219.177261,195.609650 221.150406,190.337799 
	C217.657379,188.553741 213.836349,188.561798 210.057281,188.211304 
	C202.499161,187.510269 200.132172,184.594482 201.433670,177.294388 
	C181.595795,184.739914 162.534958,193.333649 142.887070,202.475861 
M116.943542,196.518661 
	C111.572777,199.536972 106.156219,202.477280 100.844315,205.595825 
	C95.676849,208.629593 90.470062,211.634384 85.550659,215.041885 
	C80.669914,218.422607 75.194885,221.145782 71.567947,226.193848 
	C113.006447,203.886169 155.250565,183.518692 199.189514,166.725479 
	C242.954468,149.998795 287.796661,137.040833 333.700073,127.617165 
	C311.343414,127.317986 289.460175,130.405258 268.007172,136.091476 
	C215.452454,150.021347 165.736847,171.149567 116.943542,196.518661 
M244.304642,161.935196 
	C231.374893,166.457138 218.445129,170.979080 204.612396,175.816833 
	C216.279160,179.051819 227.063599,178.977539 237.827026,178.580948 
	C247.309494,178.231552 254.003693,173.182816 258.612549,165.103073 
	C259.598480,163.374619 259.940369,161.713272 258.488617,160.045929 
	C257.122070,158.476410 255.514069,158.092896 253.553467,158.782715 
	C250.729385,159.776367 247.877991,160.692413 244.304642,161.935196 
M354.501434,142.855057 
	C355.991272,140.404999 356.883362,137.819855 352.821594,137.459213 
	C346.663727,136.912460 340.517883,137.343567 334.509277,139.105804 
	C332.102234,139.811752 331.146271,140.956833 332.161041,143.452682 
	C334.054779,148.110474 332.419739,152.271179 330.089569,156.251205 
	C328.962952,158.175522 327.630798,159.979477 326.070099,162.320328 
	C337.235046,157.940933 346.527405,151.992279 354.501434,142.855057 
M74.700546,256.692230 
	C76.577087,256.499786 78.680664,257.528595 80.677551,255.288773 
	C78.185539,249.857529 77.961395,243.570679 76.074028,237.223679 
	C68.745216,240.597031 62.702393,244.327698 58.381405,250.795578 
	C63.134480,254.726639 68.543274,255.560120 74.700546,256.692230 
M277.615387,162.152618 
	C285.094055,163.920914 289.423309,160.858612 290.310822,153.300812 
	C290.493256,151.747452 290.290161,150.821121 288.633423,150.327682 
	C284.264801,149.026581 272.699860,152.622421 269.585175,156.407272 
	C270.986908,159.586700 274.126282,160.472855 277.615387,162.152618 
z"/>
<path fill="#000000" opacity="1.000000" stroke="none" 
	d="
M748.987915,249.886963 
	C741.076416,229.175552 733.310486,208.824371 725.544495,188.473206 
	C725.265503,188.496185 724.986511,188.519165 724.707520,188.542145 
	C724.272217,191.588730 723.605835,194.622818 723.440308,197.683990 
	C722.568665,213.802353 721.701416,229.922897 721.082092,246.052246 
	C720.732849,255.147858 721.081116,255.409515 729.759888,258.535034 
	C731.974548,259.332642 733.877014,260.249084 733.512573,262.989624 
	C733.152344,265.699066 731.116089,266.323273 728.751526,266.367859 
	C721.260376,266.509186 713.769531,266.743744 706.278320,266.756531 
	C703.767883,266.760773 701.082703,266.355225 700.412109,263.210815 
	C699.805054,260.363953 701.821106,259.064423 703.901001,257.805511 
	C708.484131,255.031464 710.055603,250.459915 710.585999,245.548859 
	C711.425171,237.778259 712.227722,229.984451 712.540039,222.180237 
	C713.172729,206.372757 713.397461,190.549332 713.937805,174.737534 
	C714.124756,169.266602 713.030701,165.208984 706.534058,164.623245 
	C703.953613,164.390610 702.368713,162.602951 702.625610,159.742447 
	C702.914246,156.527710 705.052612,155.679794 707.864868,155.693863 
	C714.196533,155.725525 720.530151,155.845718 726.859375,155.731628 
	C732.009827,155.638794 733.550049,159.395248 735.129822,163.100800 
	C743.553528,182.859497 752.200989,202.525253 759.904663,222.584579 
	C760.720886,224.709824 761.154175,227.069748 763.295410,228.943390 
	C766.084351,225.630798 767.164734,221.600067 768.703247,217.845184 
	C775.962402,200.128998 783.101379,182.363571 790.358215,164.646408 
	C793.729736,156.414978 794.938477,155.698059 803.767090,155.711685 
	C808.599182,155.719147 813.431396,155.684265 818.263245,155.721619 
	C820.775879,155.741028 822.935425,156.341507 823.296997,159.387024 
	C823.647583,162.340088 822.477783,164.415298 819.507690,164.836761 
	C814.300659,165.575623 813.474121,169.015442 813.303894,173.448227 
	C812.675659,189.805801 815.463013,205.980820 815.708069,222.295044 
	C815.847900,231.605942 816.803345,240.901886 817.199463,250.212738 
	C817.406067,255.069199 819.307800,258.174500 824.409363,258.695892 
	C826.719910,258.931976 828.157959,260.049683 828.234680,262.463074 
	C828.321411,265.191467 826.605713,266.438873 824.186951,266.578430 
	C812.204224,267.269745 800.209900,267.072113 788.223572,266.702698 
	C785.951111,266.632690 783.995911,265.380707 783.854370,262.722198 
	C783.706726,259.950195 785.604492,259.161804 787.944275,258.643646 
	C796.025391,256.854156 796.497192,256.084717 796.779663,248.059235 
	C797.414062,230.034973 795.132812,212.137924 794.556885,194.167801 
	C794.515564,192.878281 794.431824,191.508347 793.143677,190.166992 
	C791.019409,192.205826 790.305298,194.982712 789.209106,197.452850 
	C780.223450,217.702621 772.661865,238.510864 765.101562,259.318390 
	C764.647156,260.568939 764.218689,261.841522 763.620972,263.024445 
	C762.570312,265.103882 760.949158,266.382843 758.466614,266.291504 
	C756.127563,266.205505 754.830994,264.763824 754.040710,262.810822 
	C752.354553,258.643341 750.763428,254.437378 748.987915,249.886963 
z"/>
<path fill="#000000" opacity="1.000000" stroke="none" 
	d="
M432.709106,202.278320 
	C435.432220,204.178497 438.174255,203.596756 440.796509,203.614532 
	C449.459137,203.673248 458.123230,203.698196 466.785278,203.602997 
	C472.189545,203.543594 473.641541,202.055481 473.674042,196.764542 
	C473.723175,188.768234 473.594543,180.770325 473.696411,172.775070 
	C473.748779,168.664719 472.588928,165.613159 468.238831,164.441193 
	C465.425415,163.683243 463.994598,161.737717 464.546814,158.829300 
	C465.115265,155.835526 467.605774,155.696930 470.018494,155.696121 
	C479.347900,155.693008 488.677338,155.712875 498.006744,155.711105 
	C500.705322,155.710587 503.118073,156.252319 503.674774,159.380508 
	C504.239044,162.551453 502.130981,163.875214 499.540771,164.636887 
	C495.541748,165.812836 494.255463,168.500656 494.271179,172.549377 
	C494.372162,198.538132 494.357910,224.527618 494.274323,250.516525 
	C494.259003,255.279907 496.045990,258.163452 500.972717,258.700043 
	C503.441284,258.968903 505.133270,260.179535 504.975647,262.846344 
	C504.818573,265.503876 502.819519,266.657776 500.512390,266.683319 
	C490.191193,266.797394 479.867493,266.789154 469.546021,266.688599 
	C467.228027,266.666016 465.293793,265.497742 464.875519,262.965820 
	C464.423157,260.227325 466.296539,259.171753 468.517303,258.424713 
	C472.175720,257.194092 473.672485,254.471649 473.673492,250.749298 
	C473.676270,240.420349 473.625641,230.090714 473.733856,219.762787 
	C473.777191,215.629776 471.759796,214.152069 467.886414,214.174133 
	C457.724487,214.232025 447.561432,214.225204 437.399719,214.139465 
	C432.933533,214.101791 431.180176,216.134186 431.270996,220.572876 
	C431.458496,229.732101 431.259308,238.898743 431.393524,248.059784 
	C431.471558,253.385590 432.650421,258.086578 439.245575,258.869507 
	C441.082245,259.087555 442.165039,260.443115 442.162384,262.375122 
	C442.159485,264.493561 441.004517,265.955627 438.980286,266.258942 
	C436.196442,266.676025 433.359711,266.908966 430.544739,266.917236 
	C422.883270,266.939697 415.218933,266.891388 407.560974,266.680298 
	C404.913208,266.607300 401.924469,266.331665 401.539368,262.752625 
	C401.160217,259.228729 403.983795,259.053558 406.414795,258.353699 
	C410.968292,257.042694 411.728027,253.399307 411.725220,249.285965 
	C411.712372,230.460541 411.750244,211.635086 411.764191,192.809631 
	C411.769104,186.145737 411.622437,179.478195 411.802917,172.819290 
	C411.917023,168.608551 410.600220,165.751999 406.287903,164.585709 
	C403.409546,163.807236 400.705688,162.456818 401.467865,158.792236 
	C402.211700,155.216095 405.343964,155.723999 407.959106,155.712036 
	C416.788574,155.671692 425.618378,155.704605 434.448029,155.690826 
	C437.196320,155.686539 440.109619,155.677780 440.883057,159.026138 
	C441.670502,162.435135 439.200958,163.669846 436.458252,164.531998 
	C433.655334,165.413055 431.606750,167.425583 431.561890,170.261032 
	C431.401459,180.407669 431.583466,190.559952 431.682526,200.709656 
	C431.686707,201.140732 432.154816,201.567276 432.709106,202.278320 
z"/>
<path fill="#000000" opacity="1.000000" stroke="none" 
	d="
M631.861145,266.920471 
	C624.221497,267.005829 617.062317,267.069336 609.904114,267.184601 
	C606.780334,267.234894 603.589783,267.214600 602.845947,263.317505 
	C602.159912,259.723267 605.078430,258.944885 607.640686,258.092743 
	C612.191528,256.579254 612.769165,252.840393 612.789795,248.847412 
	C612.866333,234.028030 612.928711,219.208466 612.945862,204.388916 
	C612.958069,193.898575 612.770081,183.406509 612.911987,172.918472 
	C612.972229,168.462402 611.578857,165.524384 606.953125,164.583679 
	C604.097534,164.002945 602.553528,162.150742 602.899658,159.223114 
	C603.291992,155.904510 605.877319,155.682632 608.519165,155.684982 
	C623.172607,155.698059 637.826904,155.596680 652.479248,155.726288 
	C668.549744,155.868423 679.050354,166.357040 680.369995,182.436737 
	C681.440430,195.478683 677.689575,205.702530 665.755066,212.144669 
	C662.307312,214.005722 661.686707,216.629974 663.616211,220.058304 
	C669.247437,230.064056 674.704651,240.169067 680.437073,250.115891 
	C682.730103,254.094833 686.147583,257.025024 690.691345,258.405579 
	C692.903503,259.077698 694.792542,260.215912 694.581665,262.869293 
	C694.389343,265.288147 692.333801,265.912689 690.393372,266.555023 
	C679.637573,270.115356 667.420593,265.708313 660.130005,255.472855 
	C655.547424,249.039093 653.018616,241.573883 649.863647,234.422546 
	C648.254944,230.776169 646.542664,227.149887 644.541077,223.710098 
	C642.751099,220.634048 639.704468,219.615936 636.317505,220.545502 
	C632.886169,221.487228 633.337585,224.506317 633.332581,227.151260 
	C633.317749,234.977570 633.325195,242.803940 633.326172,250.630280 
	C633.326721,255.253937 635.176636,258.328796 640.165039,258.741028 
	C642.549133,258.938049 644.587830,259.770416 644.588684,262.486847 
	C644.589600,265.471924 642.351379,266.284637 639.810730,266.462036 
	C637.322693,266.635834 634.831726,266.768738 631.861145,266.920471 
M659.335449,195.644516 
	C659.709839,193.858231 660.263000,192.088455 660.429688,190.283005 
	C661.517029,178.508865 656.947327,168.694733 644.243652,166.175858 
	C636.811401,164.702209 633.571533,166.951965 633.410400,174.689117 
	C633.206299,184.486923 633.405151,194.292496 633.332458,204.093994 
	C633.302368,208.152649 635.389282,209.638535 639.181335,209.834198 
	C648.534485,210.316833 654.922729,206.064316 659.335449,195.644516 
z"/>
<path fill="#000000" opacity="1.000000" stroke="none" 
	d="
M907.966614,236.977753 
	C914.058777,236.392288 915.882629,237.922607 915.233887,243.375031 
	C914.566956,248.979996 913.149658,254.498032 912.533936,260.106079 
	C911.973450,265.210815 909.083618,266.909119 904.478638,266.941010 
	C895.817749,267.001007 887.157166,267.121307 878.496216,267.147766 
	C866.836731,267.183411 855.177124,267.150238 843.517578,267.156464 
	C841.684448,267.157440 839.834839,267.292084 838.171082,266.292664 
	C836.626343,265.364685 835.749390,264.023651 835.820312,262.184479 
	C835.895386,260.239990 836.993530,258.964172 838.856445,258.803894 
	C845.058167,258.270355 846.104187,254.327927 846.078186,249.025558 
	C845.956299,224.205399 845.970276,199.384079 846.073792,174.563736 
	C846.093567,169.812332 845.288025,166.070526 840.011108,164.552887 
	C837.429382,163.810379 835.683899,161.902786 836.427551,158.857559 
	C837.130310,155.979782 839.429688,155.679260 841.913574,155.679230 
	C861.736694,155.679092 881.559998,155.607361 901.382935,155.664520 
	C906.736572,155.679947 908.195068,157.266663 908.312073,162.536667 
	C908.415588,167.198837 908.455200,171.862701 908.486755,176.526062 
	C908.503052,178.935654 908.348877,181.372406 905.415100,182.083542 
	C902.427734,182.807648 900.721741,181.175766 899.640381,178.588104 
	C898.014832,174.697845 897.758972,169.957947 892.881226,168.114380 
	C885.627014,165.372604 878.134338,165.858871 870.671509,166.514282 
	C868.008484,166.748169 867.476013,169.188400 867.457397,171.452560 
	C867.385925,180.113129 867.382507,188.774368 867.384705,197.435349 
	C867.385193,199.514786 867.911743,201.396133 869.833008,202.596146 
	C874.982361,205.812561 887.823853,202.194061 890.585571,196.675705 
	C891.800354,194.248444 893.362488,192.357391 896.321167,192.879868 
	C899.362061,193.416870 900.160645,195.896988 900.191956,198.524643 
	C900.277344,205.686066 900.267639,212.850296 900.161865,220.011429 
	C900.126282,222.421677 899.487122,224.757385 896.642639,225.373337 
	C893.989136,225.947937 892.177185,224.696442 890.924988,222.404114 
	C887.396179,215.943985 881.226685,214.076004 874.586914,213.471802 
	C869.608215,213.018738 867.436768,215.156906 867.387268,220.112885 
	C867.290833,229.773636 867.278992,239.436966 867.389160,249.097443 
	C867.456970,255.044571 869.209534,256.675690 875.216187,256.930054 
	C877.046143,257.007538 878.890259,256.874847 880.710449,257.035675 
	C892.930054,258.115387 901.452454,253.597107 904.983093,241.275131 
	C905.435303,239.696823 906.148132,238.133606 907.966614,236.977753 
z"/>
<path fill="#000000" opacity="1.000000" stroke="none" 
	d="
M591.694336,250.571381 
	C590.086914,266.458893 589.492737,266.982178 574.043518,267.005005 
	C557.050049,267.030121 540.056519,267.098602 523.063049,267.134003 
	C521.071228,267.138153 519.065613,267.258362 517.141113,266.498322 
	C515.198853,265.731232 514.244019,264.231140 514.188843,262.265228 
	C514.125916,260.025238 515.611511,258.988556 517.641968,258.739563 
	C523.332214,258.041779 524.904297,254.392899 524.890503,249.240936 
	C524.823242,224.083496 524.811340,198.925705 524.883423,173.768311 
	C524.895691,169.481262 523.775513,166.335648 519.284180,164.944046 
	C516.356628,164.036957 515.043274,161.805603 515.651123,158.707245 
	C516.267273,155.566513 518.816711,155.707108 521.151489,155.704407 
	C540.644470,155.681946 560.137512,155.649658 579.630310,155.715836 
	C585.584045,155.736053 587.234375,157.519653 587.304443,163.585907 
	C587.356384,168.082977 587.328308,172.583038 587.222839,177.079102 
	C587.162292,179.661499 586.005127,181.643829 583.263367,182.082993 
	C580.585327,182.512009 579.416077,180.647629 578.525330,178.532898 
	C576.738464,174.290527 575.921753,169.109879 570.793823,167.512192 
	C563.859924,165.351807 556.626465,165.831131 549.494324,166.434448 
	C547.192261,166.629196 546.304199,168.685791 546.247925,170.864456 
	C546.015747,179.849609 545.739136,188.835541 545.683105,197.822464 
	C545.659485,201.603394 547.841064,203.598297 551.702026,203.591766 
	C554.200745,203.587524 556.706482,203.715897 559.196655,203.570908 
	C563.828125,203.301285 567.606812,201.718796 569.197876,196.799805 
	C570.036316,194.207565 571.742493,192.345016 574.752808,192.882996 
	C577.895813,193.444656 578.314514,195.961502 578.319458,198.618317 
	C578.332153,205.449112 578.357788,212.279907 578.362305,219.110703 
	C578.364075,221.881592 578.193848,224.597504 574.682678,225.246552 
	C571.305176,225.870926 569.682861,223.857849 568.967773,221.022034 
	C567.621216,215.681656 563.387390,214.888794 558.953735,214.461548 
	C546.055298,213.218613 545.005188,214.406479 545.838684,227.387772 
	C546.222107,233.358429 546.093140,239.355957 545.523132,245.352966 
	C544.664185,254.389191 546.584045,256.706116 555.528992,257.435028 
	C561.204834,257.897491 566.848450,257.030304 572.288635,255.389603 
	C576.353149,254.163773 578.964478,251.129425 580.593262,247.275085 
	C581.630127,244.821350 582.586975,242.333069 583.544128,239.846558 
	C584.643738,236.989822 586.800415,236.079956 589.549377,236.916351 
	C592.330933,237.762650 593.414673,239.878372 592.958130,242.758270 
	C592.567810,245.219742 592.182983,247.682083 591.694336,250.571381 
z"/>
<path fill="#000000" opacity="1.000000" stroke="none" 
	d="
M938.314575,265.933807 
	C930.216064,263.516785 926.488586,258.417389 926.576599,250.296234 
	C926.610535,247.163361 925.933716,244.022812 925.581360,240.885696 
	C925.281555,238.216827 925.479919,235.706543 928.676453,234.985992 
	C931.866882,234.266815 934.302612,235.505005 935.468994,238.592560 
	C936.702942,241.858810 937.784790,245.172028 939.628784,248.174942 
	C945.019897,256.954498 957.021301,261.270508 965.704651,257.523621 
	C975.301880,253.382401 978.735474,241.085052 972.780151,232.232468 
	C969.998535,228.097626 966.037048,225.404617 961.768616,223.052185 
	C954.772522,219.196426 947.656860,215.533371 941.112366,210.917816 
	C928.914368,202.314926 924.486084,190.042130 928.605896,176.478027 
	C932.528198,163.564133 944.189514,155.014175 958.314758,154.652664 
	C965.655823,154.464813 972.900635,154.863068 980.132446,156.467239 
	C984.953308,157.536606 987.372253,159.697189 987.449524,164.832245 
	C987.511658,168.956970 988.658508,173.040176 988.360352,177.233398 
	C988.180298,179.765930 987.596924,181.857315 984.617188,182.259964 
	C981.970032,182.617691 980.110413,181.661011 979.019531,179.162582 
	C977.955322,176.725266 976.992432,174.210251 975.628601,171.943787 
	C972.034607,165.971039 966.588684,163.352264 959.672974,163.839676 
	C952.699097,164.331177 948.361023,168.074432 946.400818,174.737823 
	C944.301514,181.874084 946.795044,187.444550 952.249146,191.966873 
	C957.162109,196.040512 962.942200,198.688095 968.538086,201.631393 
	C974.754578,204.901138 980.732178,208.544693 985.468994,213.829346 
	C993.791199,223.113983 996.502075,233.821777 992.684753,245.787033 
	C988.978882,257.402863 980.590149,264.039246 969.061951,267.315643 
	C958.741455,270.248840 948.677307,269.604980 938.314575,265.933807 
z"/>
<path fill="#000000" opacity="1.000000" stroke="none" 
	d="
M565.381592,370.552307 
	C561.466675,364.794342 560.576355,358.202850 558.055298,352.243195 
	C556.463318,348.479584 555.294128,344.531342 552.491577,339.982483 
	C549.921692,348.388794 547.657898,355.790344 545.397339,363.192841 
	C545.106018,364.146820 544.851990,365.112549 544.545654,366.061523 
	C543.709045,368.653442 542.856201,371.218445 539.431763,371.329803 
	C535.681702,371.451782 534.703430,368.617981 533.897339,365.910553 
	C530.239319,353.625397 526.625854,341.325409 523.181641,328.979095 
	C522.222168,325.539734 521.108337,322.393127 518.440125,319.842194 
	C515.627930,317.153687 516.529663,314.850677 520.063599,314.190002 
	C525.316345,313.207977 530.729187,313.341797 535.982666,314.105286 
	C539.145081,314.564880 540.174255,316.972534 537.487305,319.472168 
	C535.302734,321.504456 535.320923,323.538391 536.038635,326.212555 
	C537.842590,332.934143 539.264587,339.760406 542.622559,347.264984 
	C545.154358,337.645660 547.343628,329.032104 549.705811,320.466187 
	C551.063232,315.543854 555.558105,313.563690 559.178223,316.086182 
	C561.111633,317.433380 561.622498,319.608185 562.254883,321.657623 
	C564.315125,328.334595 566.268921,335.044434 568.327942,341.721771 
	C569.104431,344.239868 570.056641,346.703766 571.309448,350.278839 
	C574.778809,341.101440 577.072998,332.765381 577.758423,324.001831 
	C577.926270,321.855042 576.486938,320.817719 575.162354,319.493561 
	C572.516235,316.848267 573.194336,314.529541 576.853027,313.949677 
	C580.468567,313.376648 584.196594,313.329132 587.788635,314.154358 
	C591.280579,314.956635 592.294861,317.088501 589.637024,319.869110 
	C586.736694,322.903473 585.552368,326.631866 584.429077,330.498077 
	C580.993652,342.322510 577.443176,354.113434 573.970276,365.927032 
	C572.715942,370.193756 570.615295,372.885864 565.381592,370.552307 
z"/>
<path fill="#000000" opacity="1.000000" stroke="none" 
	d="
M441.235291,364.767334 
	C434.878998,357.030273 428.755554,349.568512 422.614410,342.121307 
	C421.559174,340.841583 420.428802,339.623779 418.552673,337.489502 
	C416.874878,346.207886 417.192749,353.826813 418.076477,361.457733 
	C418.297058,363.362701 419.837799,364.119690 421.413971,364.817230 
	C423.011627,365.524384 424.443787,366.573029 423.930450,368.578308 
	C423.455536,370.433594 421.822968,371.140076 420.069855,371.174561 
	C415.910950,371.256348 411.748199,371.244934 407.589111,371.163574 
	C405.997559,371.132446 404.681519,370.351776 404.089600,368.781494 
	C403.437347,367.051178 404.375946,365.855682 405.739868,365.036560 
	C409.061340,363.041870 409.620941,359.897247 409.611115,356.414337 
	C409.584412,346.924622 409.568237,337.434509 409.635620,327.945129 
	C409.658264,324.761414 409.060547,322.042572 406.076172,320.245422 
	C404.607513,319.361053 403.404175,318.022034 404.202911,316.107452 
	C404.943542,314.332245 406.706238,313.929260 408.380829,313.923096 
	C414.538879,313.900421 419.717255,315.756958 423.299042,321.267670 
	C429.110962,330.209564 436.077240,338.224640 444.462402,346.785492 
	C444.462402,338.321960 444.534515,330.996735 444.404480,323.675140 
	C444.376892,322.122192 442.899658,321.175690 441.679901,320.269531 
	C440.412567,319.328033 439.437683,318.141388 439.947540,316.462036 
	C440.447327,314.815979 441.977570,314.133118 443.455048,314.069397 
	C447.101288,313.912231 450.764954,313.928284 454.410736,314.102692 
	C455.943787,314.176056 457.239319,315.113647 457.739838,316.732117 
	C458.282928,318.488342 457.304230,319.657959 455.972290,320.470703 
	C453.705353,321.854065 453.028625,323.918915 452.997589,326.394409 
	C452.839111,339.037262 452.617645,351.679535 452.522278,364.322784 
	C452.503296,366.842316 453.098938,369.603821 450.243011,370.853760 
	C447.130798,372.215881 445.324066,369.944489 443.640533,367.781769 
	C442.924774,366.862274 442.188873,365.958466 441.235291,364.767334 
z"/>
<path fill="#000000" opacity="1.000000" stroke="none" 
	d="
M494.153381,320.895142 
	C488.890747,319.387604 487.007812,322.085297 486.515900,326.348389 
	C486.269043,328.487518 486.382843,330.673035 486.403961,332.836914 
	C486.424866,334.981018 486.086761,337.459839 488.704681,338.359985 
	C491.191010,339.214783 493.634125,338.881836 495.608490,336.832703 
	C497.043304,335.343475 498.084808,332.778992 500.771301,333.884491 
	C503.709320,335.093506 503.066986,337.983582 503.173401,340.414215 
	C503.238892,341.910095 503.202515,343.412109 503.167786,344.910339 
	C503.117432,347.085052 503.221588,349.455109 500.875732,350.570068 
	C498.299561,351.794434 497.555420,349.122314 496.111176,347.972870 
	C493.960754,346.261353 491.633698,344.802917 488.840057,346.102692 
	C486.299133,347.284912 486.414886,349.847382 486.396301,352.192261 
	C486.387085,353.356018 486.476440,354.522064 486.554840,355.684753 
	C486.743317,358.479401 485.028259,361.886414 488.972046,363.498291 
	C492.949829,365.124054 499.041473,363.614288 501.895172,360.515137 
	C503.746857,358.504150 504.649597,353.680695 508.870026,357.370087 
	C511.487518,359.658264 510.575348,366.275696 507.603882,368.707672 
	C505.742249,370.231323 503.476501,371.072144 501.143433,371.111755 
	C491.487396,371.275696 481.828308,371.268768 472.170288,371.304077 
	C470.349731,371.310760 468.902222,370.537476 468.197266,368.814606 
	C467.382111,366.822296 468.607910,365.613617 470.161682,364.798065 
	C473.107910,363.251617 473.703705,360.733032 473.679626,357.679199 
	C473.599518,347.520386 473.614410,337.360229 473.681305,327.201202 
	C473.701233,324.176880 473.165527,321.610260 470.207367,320.046753 
	C468.730225,319.265991 468.141113,317.875153 468.647125,316.227325 
	C469.164246,314.543243 470.627625,313.916595 472.156006,313.910248 
	C482.479553,313.867523 492.804230,313.858978 503.126953,313.977539 
	C506.928833,314.021179 507.308228,317.106689 507.852112,319.939667 
	C508.444244,323.024017 508.520966,326.048187 505.719604,328.112396 
	C503.695923,329.603577 502.200256,328.150574 501.278320,326.457397 
	C499.753357,323.656738 497.633728,321.750244 494.153381,320.895142 
z"/>
<path fill="#000000" opacity="1.000000" stroke="none" 
	d="
M620.545776,355.757019 
	C619.244751,352.768280 616.700684,351.687836 614.497009,350.240723 
	C611.435852,348.230530 608.223755,346.436798 605.256104,344.300568 
	C597.861633,338.977753 595.124695,332.385895 597.222839,325.474945 
	C599.422729,318.228638 606.620544,313.108246 615.146790,312.724182 
	C625.155457,312.273315 629.371460,316.329193 629.209106,326.254120 
	C629.181274,327.955048 629.154541,329.790100 627.173035,330.375397 
	C625.133728,330.977844 624.186523,329.368073 623.358337,327.900330 
	C622.541382,326.452606 621.935974,324.880249 621.063965,323.470093 
	C619.280090,320.585114 616.547302,319.664276 613.308350,320.158295 
	C610.084412,320.649994 608.417725,322.915070 607.637634,325.794373 
	C606.796936,328.897217 608.760132,330.904999 611.049988,332.399017 
	C615.369141,335.217041 619.750977,337.955505 624.235901,340.499420 
	C637.287354,347.902161 633.025452,364.418365 622.577454,369.712952 
	C615.755859,373.169800 608.726624,373.009613 601.876831,369.774231 
	C597.482544,367.698608 595.398132,362.932770 596.537964,358.541199 
	C596.960083,356.914795 597.309570,355.154816 599.395569,354.921844 
	C601.197571,354.720642 602.077148,356.073792 602.774963,357.415039 
	C604.187317,360.129700 605.893738,362.473663 608.782532,363.850983 
	C616.035828,367.309204 620.894287,364.178925 620.545776,355.757019 
z"/>
<path fill="#000000" opacity="1.000000" stroke="none" 
	d="
M270.778992,208.835114 
	C264.478271,210.691666 258.593933,212.509766 252.644073,214.079559 
	C250.295593,214.699188 247.436707,215.560028 245.941101,212.660950 
	C244.403473,209.680435 246.433304,207.577576 248.565231,205.850662 
	C249.840256,204.817841 251.296234,203.905457 252.813309,203.290207 
	C269.100769,196.685028 286.017853,193.718353 303.596100,194.692261 
	C306.076752,194.829712 308.529358,195.558624 309.188995,198.064316 
	C309.907349,200.792938 307.429657,202.093201 305.502380,203.375351 
	C303.498627,204.708435 301.170715,205.243301 298.838562,205.193161 
	C289.432159,204.990936 280.313782,206.917557 270.778992,208.835114 
z"/>
<path fill="#000000" opacity="1.000000" stroke="none" 
	d="
M292.569305,215.421417 
	C290.042267,218.554596 287.920227,221.406998 287.113800,225.169098 
	C285.776154,231.409409 283.444550,233.438843 278.843475,233.109482 
	C273.914490,232.756668 272.127106,230.748917 271.237183,224.325668 
	C268.330688,223.937057 265.442871,224.432907 262.529999,224.937500 
	C259.204803,225.513504 255.848724,225.259674 254.802353,221.441193 
	C253.645782,217.220657 256.983246,215.982162 260.167053,215.207382 
	C269.663086,212.896530 279.195099,210.733795 288.699066,208.454910 
	C290.839813,207.941605 293.012848,207.128525 294.490784,209.511841 
	C295.976013,211.906921 294.324341,213.544189 292.569305,215.421417 
z"/>
<path fill="#000000" opacity="1.000000" stroke="none" 
	d="
M165.243179,245.117218 
	C162.006226,249.924744 164.451996,252.886185 167.960083,255.438980 
	C169.847641,256.812531 172.287964,257.869781 171.317795,260.803589 
	C170.312286,263.844269 167.639420,264.289581 164.837875,264.334412 
	C161.752090,264.383820 159.241135,263.178528 157.656876,260.598907 
	C152.856644,252.782761 150.757690,245.193008 157.766907,238.924423 
	C158.493134,238.274948 159.147705,237.456238 158.818848,236.143234 
	C156.742279,234.229782 154.526672,235.983719 152.359436,236.165894 
	C149.935104,236.369644 147.671219,236.337387 146.436188,233.686462 
	C145.260696,231.163269 146.797943,229.581390 148.360641,228.043335 
	C153.235718,223.245148 160.841263,223.213577 165.959106,227.933655 
	C170.595139,232.209427 170.399811,238.575027 165.243179,245.117218 
z"/>
<path fill="#000000" opacity="1.000000" stroke="none" 
	d="
M130.137726,223.044189 
	C130.315048,226.400406 128.117340,227.817886 126.166283,229.342117 
	C124.462021,230.673523 122.596664,231.797897 120.882973,233.118210 
	C111.492981,240.352676 109.886086,248.076721 115.567352,258.463318 
	C116.126541,259.485626 116.732780,260.483551 117.257935,261.522766 
	C118.258514,263.502777 118.289230,265.397339 116.463715,266.944580 
	C114.506126,268.603790 112.423058,268.387329 110.512711,266.935425 
	C107.518341,264.659637 105.531914,261.533051 104.131058,258.135559 
	C97.930656,243.097824 105.809624,225.193192 121.062103,219.517670 
	C124.866936,218.101868 128.331055,217.972992 130.137726,223.044189 
z"/>
<path fill="#000000" opacity="1.000000" stroke="none" 
	d="
M195.992050,215.459412 
	C193.839066,216.655533 192.104813,215.920822 190.397675,215.287064 
	C181.361908,211.932648 172.327469,208.574158 163.314163,205.160080 
	C160.534409,204.107162 157.873642,202.612366 158.994446,199.016312 
	C160.051102,195.626053 163.169998,195.098206 165.985977,195.905014 
	C176.066238,198.793060 185.973846,202.204636 194.811615,208.066437 
	C197.598785,209.915070 198.452240,212.290131 195.992050,215.459412 
z"/>
</svg>